Coordinates
version=1
nRows=16
nColumns=42
inDegrees=yes

Units are S.I. units (second, meters, Newtons, ...)
If the header above contains a line with 'inDegrees', this indicates whether rotational values are in degrees (yes) or radians (no).

endheader
time	pelvis_tilt	pelvis_list	pelvis_rotation	pelvis_tx	pelvis_ty	pelvis_tz	hip_flexion_r	hip_adduction_r	hip_rotation_r	knee_angle_r	knee_angle_r_beta	ankle_angle_r	subtalar_angle_r	mtp_angle_r	hip_flexion_l	hip_adduction_l	hip_rotation_l	knee_angle_l	knee_angle_l_beta	ankle_angle_l	subtalar_angle_l	mtp_angle_l	lumbar_extension	lumbar_bending	lumbar_rotation	sh_tx_r	sh_ty_r	sh_tz_r	sh_plane_elev_r	sh_elev_r	sh_axial_rot_r	elbow_flex_r	pro_sup_r	sh_tx_l	sh_ty_l	sh_tz_l	sh_plane_elev_l	sh_elev_l	sh_axial_rot_l	elbow_flex_l	pro_sup_l
      4.65000000	     -4.42583184	      0.29819184	     -0.47431604	      0.25629379	      0.92953588	     -0.04134019	      2.21683440	     -7.21686926	     -5.75672314	      0.54620250	      0.00953303	     -0.38177287	    -10.65130533	     -7.49999987	      2.73701522	     -4.01478909	    -15.44211524	      1.43595662	      0.02506217	      7.18729217	      4.41954855	     -7.49999987	     -1.16298419	      0.45231206	     -4.45390853	      0.00810837	     -0.01804738	     -0.00537747	      3.80038472	      5.17112169	     -1.29833547	     23.25121131	     70.89536373	     -0.00022425	     -0.01654308	     -0.00419667	     18.57816309	      7.52703622	     -2.89611328	     27.42843653	     60.98838725
      4.66666670	     -4.58529833	      0.38109118	     -0.51152317	      0.25642830	      0.92956073	     -0.04113327	      2.35567972	     -7.40154988	     -5.65147724	      0.58333762	      0.01018116	     -0.38491849	    -10.77742731	     -7.49999987	      2.89285563	     -3.86991118	    -15.65733423	      1.51911907	      0.02651363	      7.42297242	      4.60931672	     -7.49999987	     -0.97173763	      0.44828551	     -4.73885453	      0.00834598	     -0.01800189	     -0.00528200	      3.51023077	      5.14664901	     -1.50864708	     23.34704867	     70.81719460	     -0.00127118	     -0.01665460	     -0.00416353	     18.60950993	      7.48919090	     -3.04172372	     27.27191086	     61.10269065
      4.68333330	     -4.72201137	      0.44119876	     -0.55597809	      0.25666983	      0.92973963	     -0.04103293	      2.45846498	     -7.53747883	     -5.60607062	      0.59799679	      0.01043701	     -0.37287579	    -10.75922180	     -7.49999987	      2.99943116	     -3.76320487	    -15.80945398	      1.52955213	      0.02669572	      7.53495755	      4.73617576	     -7.49999987	     -0.76067238	      0.42540256	     -4.88066203	      0.00793394	     -0.01799371	     -0.00527824	      3.69161384	      5.25172826	     -1.50047357	     23.35563229	     70.29383767	     -0.00173524	     -0.01659878	     -0.00418749	     19.20645283	      7.47557876	     -3.16758930	     26.95481077	     61.17018822
      4.70000000	     -4.78427215	      0.51191384	     -0.55682905	      0.25670867	      0.92996953	     -0.04083203	      2.49298297	     -7.67750635	     -5.49204422	      0.62204308	      0.01085670	     -0.57204724	    -11.01723254	     -7.49999987	      3.06485834	     -3.64248503	    -15.62624232	      1.58900481	      0.02773337	      7.51211038	      4.39293427	     -7.49999987	     -0.74446893	      0.41259575	     -5.07595938	      0.00745435	     -0.01797098	     -0.00518974	      3.55224996	      5.27765467	     -1.54467709	     23.84734671	     70.00349389	     -0.00248945	     -0.01669748	     -0.00422399	     19.42194977	      7.51507539	     -3.60801851	     27.08848812	     61.36645887
      4.71666670	     -4.66867454	      0.55452101	     -0.62249833	      0.26128834	      0.93657607	     -0.03609123	      2.31080701	     -7.69734154	     -5.44464313	      0.62624263	      0.01093000	     -0.51802801	    -10.81464218	     -7.49999987	      2.78545032	     -3.62839820	    -15.65404741	      1.50548076	      0.02627560	      7.38762287	      4.47347627	     -7.49999987	     -0.92214163	      0.27206147	     -5.19252003	      0.00612777	     -0.01792234	     -0.00528246	      3.32342196	      5.16005314	     -1.49266856	     24.14591132	     70.49377371	     -0.00350278	     -0.01658287	     -0.00418504	     19.44442556	      7.56872558	     -3.66582692	     26.88042567	     61.78225362
      4.73333330	     -4.67369325	      0.57339101	     -0.70797117	      0.26129195	      0.93630098	     -0.03573887	      2.26682192	     -7.69561661	     -5.27357698	      0.64842683	      0.01131718	     -0.22631611	    -10.20999266	     -7.49999987	      2.65204177	     -3.63206238	    -15.63413985	      1.51259815	      0.02639982	      7.24427271	      4.29677180	     -7.49999987	     -0.83345611	      0.17210697	     -5.10010609	      0.00466357	     -0.01787551	     -0.00526093	      3.34674836	      5.09213444	     -1.09160510	     24.17177277	     69.78997090	     -0.00372000	     -0.01647967	     -0.00422186	     19.91766948	      7.70898336	     -3.20711847	     26.32774063	     61.76572717
      4.75000000	     -4.57139518	      0.59787867	     -0.81590089	      0.26142021	      0.93602780	     -0.03574059	      2.17339098	     -7.71197788	     -5.01689765	      0.67940709	      0.01185789	     -0.22034294	    -10.10824462	     -7.49999987	      2.40445948	     -3.64545946	    -15.67585949	      1.45739216	      0.02543629	      7.23545850	      4.34391149	     -7.49999987	     -0.99474577	      0.02460311	     -5.17096871	      0.00348337	     -0.01782330	     -0.00531790	      3.06474184	      4.99048010	     -0.83392267	     24.40815579	     68.91275681	     -0.00434689	     -0.01628064	     -0.00419713	     19.72907386	      7.77296330	     -3.10580398	     26.25640494	     61.86543200
      4.76666670	     -4.44649652	      0.54752099	     -0.92511122	      0.26159574	      0.93582943	     -0.03545628	      2.07104136	     -7.63929385	     -4.78984166	      0.72276446	      0.01261462	     -0.15584774	     -9.85897739	     -7.49999987	      2.16750029	     -3.71746751	    -15.55256739	      1.42643524	      0.02489599	      7.18412022	      4.07965809	     -7.49999987	     -1.07319718	     -0.00583745	     -5.58549188	      0.00421437	     -0.01775263	     -0.00530783	     -0.54931096	      4.59885678	      0.26279031	     25.03956118	     75.06271562	     -0.00459445	     -0.01615443	     -0.00413321	     17.15569986	      7.50659847	     -2.34964806	     26.36325986	     66.66752855
      4.78333330	     -4.33214303	      0.54766402	     -0.97234805	      0.26574917	      0.93571157	     -0.04032445	      1.93880487	     -7.71010730	     -4.74997654	      0.83313432	      0.01454094	     -0.09771787	     -9.51069868	     -7.49999987	      1.92088542	     -3.68962425	    -15.53330894	      1.40767302	      0.02456853	      7.22331819	      4.08341263	     -7.49999987	     -1.21215180	     -0.04053281	     -5.92077648	      0.00275095	     -0.01764974	     -0.00529845	      0.20745925	      4.74199343	     -0.16134398	     25.10576390	     72.66591167	     -0.00587921	     -0.01599513	     -0.00415757	     18.04179254	      7.53347494	     -2.53899251	     26.15747191	     65.54990244
      4.80000000	     -4.27319605	      0.49411475	     -1.20131797	      0.26186102	      0.93251348	     -0.03517317	      2.06340343	     -7.65019850	     -4.46536619	      1.09214103	      0.01906146	     -0.13059255	     -9.79617150	     -7.49999987	      1.76237406	     -3.75180773	    -15.55936039	      1.42586687	      0.02488607	      7.40220851	      3.81803684	     -7.49999987	     -1.26628692	     -0.07891542	     -6.17209637	      0.00344118	     -0.01760675	     -0.00534266	     -0.47370908	      4.90311820	      0.12191164	     25.85264261	     72.64341605	     -0.00633600	     -0.01571565	     -0.00416351	     17.70578268	      7.51323032	     -2.31466821	     26.06567148	     66.19125324
      4.81666670	     -4.16301300	      0.43789789	     -1.26332009	      0.26620138	      0.93588040	     -0.04055988	      2.00225636	     -7.65511849	     -4.51374792	      1.30383017	      0.02275613	     -0.07538667	     -9.61888590	     -7.49999987	      1.56667995	     -3.75065635	    -15.36338316	      1.45753726	      0.02543882	      7.28364747	      3.51994292	     -7.49999987	     -1.32719548	     -0.02266799	     -6.27598677	      0.00305376	     -0.01760627	     -0.00527575	     -1.01264872	      5.21803979	     -0.58800336	     26.80107303	     71.11647261	     -0.00579340	     -0.01569125	     -0.00409557	     18.44885016	      7.43429002	     -2.64516957	     25.94248656	     65.53143431
      4.83333330	     -4.23252522	      0.32922628	     -1.42153262	      0.26237196	      0.93258608	     -0.03560827	      2.29909398	     -7.56146838	     -4.47223870	      1.67642927	      0.02925921	     -0.02775399	     -9.80013165	     -7.49999987	      1.63010481	     -3.86143153	    -15.36312014	      1.61723967	      0.02822616	      7.62409276	      3.28613220	     -7.49999987	     -1.25852561	      0.04070506	     -6.32346338	      0.00274433	     -0.01760923	     -0.00524143	     -0.83980538	      5.64057828	     -2.01454457	     28.03089531	     69.26340441	     -0.00546284	     -0.01547279	     -0.00412440	     19.76938199	      7.58839000	     -2.89312647	     25.79122153	     64.83363598
      4.85000000	     -4.41154076	      0.23918807	     -1.72399557	      0.25816533	      0.93586366	     -0.03057627	      2.76138242	     -7.38683166	     -4.23009143	      1.84186296	      0.03214657	      0.13961092	     -9.88312675	     -7.49999987	      1.85400376	     -4.03403794	    -15.38577205	      1.65104462	      0.02881616	      7.47593011	      2.88682340	     -7.49999987	     -0.96267204	     -0.00145061	     -6.06575498	      0.00487728	     -0.01773247	     -0.00517896	     -5.47070326	      5.54935845	     -0.53515423	     29.86669656	     74.12577767	     -0.00250169	     -0.01545440	     -0.00402605	     17.49597218	      7.37045208	     -1.71059371	     25.94626628	     68.87008573
      4.86666670	     -4.57634292	      0.12929486	     -1.95148943	      0.25817519	      0.93256647	     -0.03018900	      3.15911376	     -7.18168882	     -4.16500520	      1.99073059	      0.03474480	      0.21005425	     -9.88817940	     -7.49999987	      2.14601979	     -4.26817971	    -15.28720757	      1.83745516	      0.03206964	      7.41059679	      2.54166077	     -7.49999987	     -0.84980438	     -0.05641168	     -6.29953608	      0.00548467	     -0.01777553	     -0.00520432	     -4.66223599	      5.89965625	     -2.12937483	     31.17701362	     72.56252242	     -0.00204643	     -0.01540450	     -0.00396481	     18.70227982	      7.66125985	     -1.94396122	     25.71831730	     68.02631818
      4.88333330	     -4.70468748	     -0.01190813	     -2.34002564	      0.25441073	      0.93590985	     -0.02504853	      3.59609062	     -6.86841069	     -3.98690819	      2.21410828	      0.03864348	      0.39461275	     -9.66761694	     -7.49999987	      2.38139863	     -4.60307727	    -15.34602413	      1.95857106	      0.03418351	      7.23086916	      2.04152983	     -7.49999987	     -0.79903640	     -0.22443563	     -6.38787271	      0.00670381	     -0.01784654	     -0.00533561	     -4.46594112	      6.34569652	     -2.79081650	     32.39529593	     71.41144492	     -0.00085554	     -0.01504767	     -0.00398374	     19.42380801	      7.94510389	     -1.71600328	     25.69040433	     67.46285453
      4.90000000	     -4.80402854	     -0.12551265	     -2.68077204	      0.25919502	      0.93927708	     -0.02068086	      3.75058650	     -6.51157122	     -3.72712250	      2.16384887	      0.03776629	      0.42441066	     -9.74091994	     -7.49999987	      2.55994536	     -4.99364875	    -15.55583873	      2.15886813	      0.03767936	      7.02133785	      2.01297946	     -7.49999987	     -0.69706497	     -0.45232195	     -7.05030981	      0.00826232	     -0.01786819	     -0.00535759	     -5.52883101	      6.39967387	     -4.25401215	     34.24217575	     70.73551411	     -0.00078204	     -0.01441238	     -0.00396442	     19.52301074	      8.14217932	     -1.81970373	     25.45115141	     67.24927399
